<?xml version="1.0" encoding="UTF-8"?>
<svg id="Layer_2" data-name="Layer 2" xmlns="http://www.w3.org/2000/svg" viewBox="0 0 610.15 561.14">
  <defs>
    <style>
      .cls-1 {
        fill: #231f20;
      }

      .cls-2 {
        stroke: #fff;
        stroke-width: 5.75px;
      }

      .cls-2, .cls-3, .cls-4, .cls-5 {
        stroke-miterlimit: 10;
      }

      .cls-2, .cls-5 {
        stroke-linecap: round;
      }

      .cls-3 {
        stroke-width: 7.19px;
      }

      .cls-3, .cls-4, .cls-5 {
        fill: none;
        stroke: #000;
      }

      .cls-4, .cls-5 {
        stroke-width: 28.76px;
      }
    </style>
  </defs>
  <g>
    <path class="cls-5" d="M118.16,322.99c.17-11.55,0-24.65,0-38.94,0-58.38-26.8-105.68-59.86-105.68s-40.75,45.97-43.63,104.55c-.66,13.46,0,25.55,0,37.84l1.14,73.35"/>
    <path class="cls-4" d="M118.3,322.99c-.17-11.55,0-24.65,0-38.94,0-58.38,20.69-105.15,53.75-105.15s33.52,42.93,56.55,99.82c5.13,12.67,13.39,24.52,30.22,34.8"/>
  </g>
  <path class="cls-5" d="M383.3,143.14s10.08,265.07-3.47,299.15c-14.95,37.61-110.14,50.53-179.32-30.64"/>
  <g>
    <path class="cls-3" d="M487.01,80.25c-10.94-43.9-53.45-76.65-104.23-76.65-59.1,0-106.99,44.3-106.99,98.95,0,10.38,1.74,20.39,4.95,29.78l206.29-52.09h-.01Z"/>
    <path d="M610.15,55.07c-5.32,21.34-8.6,10.65-7.23,13.57-1.7.6-4.13,1.11-5.9,1.55-11.49,2.69-23.72,5.49-35.18,8.01-66.8,14.58-134.28,27.77-200.73,44.09-20.56,5.06-54.51,13.5-74.78,18.71l-2.53.62-1.29.3-.7.16-.43.09-.36.06c-.1-1.38.78,3.34-5.56-3.68,2.3-9.17,3.74-4.6,3.19-5.87.4-.14,1.04-.35,1.44-.47,4.87-1.45,13.63-3.84,18.66-5.25,36.34-10.14,101.36-28.83,138.37-39.43,46.21-12.81,92.21-26.54,139.1-36.71,4.89-1.04,14.19-3.06,19.15-4.01l.81-.14.58-.1.62-.09c.16,3.22-1.96-7.75,12.77,8.6h.03ZM587.89,60.62c14.61,16.32,12.38,5.38,12.45,8.61.37-.06.29-.04.3-.04-.79.2-3.06.78-4.03,1.02-11.33,2.93-23.31,6.27-34.62,9.09-87.19,21.15-183.21,39.31-270.58,60.25l-4.96,1.22-2.46.62-1.19.32-.55.14-.2.06s-.09.03.04-.01c-.66-1.22.68,3.38,2.89-5.74-6.24-7-5.25-2.3-5.25-3.7-.13.01-.06,0-.04,0l.2-.03.56-.1c4.87-.98,13.69-2.98,18.68-4.08,86.47-19.44,172.57-44.96,257.61-70,8.7-2.5,25.78-7.39,34.41-9.95l2.37-.72,1.11-.35.43-.14.09-.03h-.03l-.29.1c1.47,2.88-1.71-7.84-6.94,13.44h0Z"/>
  </g>
  <g>
    <ellipse class="cls-4" cx="293.19" cy="246.85" rx="71.1" ry="76.14"/>
    <g>
      <ellipse cx="315.91" cy="246.64" rx="35.69" ry="43.73"/>
      <path class="cls-2" d="M316.34,210.07s-11.56,23.02,0,36.23,7.13,26.4,0,36.23"/>
    </g>
  </g>
  <g>
    <ellipse class="cls-4" cx="470.38" cy="246.85" rx="71.1" ry="76.14"/>
    <g>
      <ellipse cx="495.43" cy="246.64" rx="35.69" ry="43.73"/>
      <path class="cls-2" d="M495.86,209.66s-11.56,23.02,0,36.23,7.13,26.4,0,36.23"/>
    </g>
  </g>
  <g>
    <path class="cls-1" d="M195.71,561.14c-4.93,0-9.19-1.09-12.77-3.26-3.57-2.19-6.33-5.22-8.27-9.13s-2.9-8.45-2.9-13.62.96-9.66,2.9-13.59c1.94-3.93,4.7-6.99,8.27-9.17,3.57-2.19,7.82-3.26,12.77-3.26,5.9,0,10.67,1.41,14.35,4.24,3.67,2.83,6,6.8,7.02,11.93h-7.91c-.72-2.98-2.19-5.35-4.43-7.12-2.23-1.77-5.23-2.66-9.02-2.66-3.41,0-6.36.79-8.84,2.37-2.49,1.58-4.41,3.84-5.75,6.76s-2.01,6.43-2.01,10.5.68,7.59,2.01,10.54,3.26,5.21,5.75,6.76c2.49,1.55,5.44,2.33,8.84,2.33,3.78,0,6.8-.85,9.02-2.56,2.23-1.7,3.71-4.01,4.43-6.94h7.91c-1.01,4.99-3.35,8.87-7.02,11.68-3.67,2.8-8.45,4.2-14.35,4.2h0Z"/>
    <path class="cls-1" d="M254.45,561.14c-4.85,0-9.09-1.09-12.77-3.26-3.67-2.19-6.54-5.22-8.63-9.13s-3.12-8.45-3.12-13.62,1.05-9.65,3.12-13.54c2.08-3.91,4.96-6.96,8.63-9.17,3.67-2.2,7.92-3.31,12.77-3.31s9.25,1.11,12.94,3.31,6.56,5.26,8.6,9.17,3.05,8.43,3.05,13.54-1.02,9.72-3.05,13.62c-2.04,3.91-4.9,6.94-8.6,9.13-3.7,2.19-8.01,3.26-12.94,3.26ZM254.52,554.75c3.45,0,6.47-.79,9.06-2.37s4.59-3.84,6-6.76,2.13-6.43,2.13-10.5-.7-7.58-2.13-10.5c-1.41-2.92-3.42-5.16-6-6.71s-5.61-2.33-9.06-2.33-6.47.78-9.06,2.33-4.6,3.8-6.04,6.71-2.16,6.43-2.16,10.5.72,7.58,2.16,10.5,3.45,5.18,6.04,6.76c2.59,1.58,5.61,2.37,9.06,2.37Z"/>
    <path class="cls-1" d="M293.78,560.28v-50.33h31.27v5.9h-24.08v16.32h20.13v5.75h-20.13v22.36h-7.19Z"/>
    <path class="cls-1" d="M338.85,560.28v-50.33h31.27v5.9h-24.08v16.32h20.13v5.75h-20.13v22.36h-7.19Z"/>
    <path class="cls-1" d="M383.93,560.28v-50.33h31.78v5.9h-24.59v16.1h22.43v5.75h-22.43v16.68h24.59v5.9h-31.78Z"/>
    <path class="cls-1" d="M431.09,560.28v-50.33h31.78v5.9h-24.59v16.1h22.43v5.75h-22.43v16.68h24.59v5.9h-31.78Z"/>
  </g>
</svg>