<?xml version="1.0" encoding="UTF-8"?>
<svg id="Layer_1" data-name="Layer 1" xmlns="http://www.w3.org/2000/svg" xmlns:xlink="http://www.w3.org/1999/xlink" viewBox="0 0 509.65 454.19">
  <defs>
    <style>
      .cls-1, .cls-2, .cls-3, .cls-4, .cls-5 {
        fill: none;
      }

      .cls-2, .cls-3, .cls-4, .cls-5 {
        stroke-miterlimit: 10;
      }

      .cls-2, .cls-3, .cls-5 {
        stroke: #020202;
      }

      .cls-2, .cls-5 {
        stroke-width: 10.91px;
      }

      .cls-3 {
        stroke-width: 5.23px;
      }

      .cls-6 {
        fill: #231f20;
      }

      .cls-7 {
        clip-path: url(#clippath-1);
      }

      .cls-8 {
        fill: #020202;
      }

      .cls-4 {
        stroke: #fff;
        stroke-width: 2.18px;
      }

      .cls-4, .cls-5 {
        stroke-linecap: round;
      }

      .cls-9 {
        clip-path: url(#clippath);
      }
    </style>
    <clipPath id="clippath">
      <rect class="cls-1" x="83.67" width="333.84" height="432.03"/>
    </clipPath>
    <clipPath id="clippath-1">
      <rect class="cls-1" x="83.67" width="333.84" height="432.03"/>
    </clipPath>
  </defs>
  <g class="cls-9">
    <g class="cls-7">
      <g>
        <path class="cls-5" d="M194.86,249.9c.07-4.38,0-9.35,0-14.78,0-22.14-10.17-40.1-22.7-40.1s-15.46,17.43-16.54,39.66c-.24,5.11,0,9.7,0,14.36l.44,27.83s-1.2,74.77,70.08,75.54"/>
        <path class="cls-2" d="M194.91,249.9c-.07-4.38,0-9.35,0-14.78,0-22.14,7.85-39.89,20.4-39.89s12.72,16.28,21.45,37.87c1.95,4.8,5.08,9.3,11.46,13.21"/>
        <path class="cls-5" d="M295.44,181.67s3.82,100.56-1.31,113.49c-5.67,14.27-41.79,19.18-68.04-11.62"/>
        <path class="cls-3" d="M306.89,153.03c-7.12-32.14-37.41-56.8-74.35-57.78-43-1.13-78.7,30.17-79.74,69.94-.19,7.56.87,14.87,3.02,21.76l151.1-33.92h-.02Z"/>
        <path class="cls-8" d="M368.26,142.95c-3.75,13.49-5.65,6.63-4.83,8.52-1.08.35-2.65.63-3.79.89-7.36,1.52-15.2,3.09-22.53,4.5-42.77,8.15-85.94,15.41-128.52,24.67-13.17,2.88-34.93,7.68-47.92,10.64l-1.62.35-.84.17-.45.09-.28.05-.23.03c-.03-.87.44,2.13-3.47-2.44,1.62-5.79,2.46-2.86,2.13-3.68.26-.09.66-.21.92-.28,3.12-.84,8.74-2.22,11.97-3.02,23.3-5.85,65-16.65,88.75-22.77,29.63-7.38,59.14-15.34,89.17-21.03,3.12-.58,9.09-1.71,12.27-2.23l.52-.07.37-.05.4-.05c.05,2.06-1.12-4.97,7.97,5.69h.02l-.02.02ZM353.98,146.11c9.02,10.63,7.78,3.63,7.78,5.69.24-.03.19-.02.19-.02-.51.12-1.95.44-2.58.58-7.26,1.68-14.94,3.59-22.2,5.2-55.86,11.99-117.3,21.93-173.26,33.8l-3.18.7-1.57.35-.77.17-.35.09-.12.03h.03c-.4-.8.37,2.15,1.94-3.61-3.86-4.55-3.3-1.55-3.28-2.44-.09,0-.03,0-.03,0h.12l.37-.07c3.12-.54,8.76-1.66,11.95-2.29,55.37-10.92,110.61-25.72,165.16-40.22,5.58-1.45,16.54-4.28,22.07-5.76l1.52-.42.72-.21.28-.09h.05-.02l-.19.05c.89,1.85-.96-5.03-4.64,8.45h0v.02Z"/>
        <ellipse class="cls-2" cx="261.25" cy="221.02" rx="26.98" ry="28.88"/>
        <path class="cls-8" d="M269.87,204.35c7.49,0,13.54,7.43,13.54,16.59s-6.05,16.59-13.54,16.59-13.54-7.43-13.54-16.59,6.05-16.59,13.54-16.59"/>
        <path class="cls-8" d="M270.05,207.06s-4.38,8.72,0,13.75c4.38,5.01,2.7,10.02,0,13.75"/>
        <path class="cls-4" d="M270.05,207.06s-4.38,8.72,0,13.75c4.38,5.01,2.7,10.02,0,13.75"/>
        <ellipse class="cls-2" cx="328.49" cy="221.02" rx="26.98" ry="28.88"/>
        <path class="cls-8" d="M337.98,204.35c7.49,0,13.54,7.43,13.54,16.59s-6.05,16.59-13.54,16.59-13.54-7.43-13.54-16.59,6.05-16.59,13.54-16.59"/>
        <path class="cls-8" d="M338.15,206.9s-4.38,8.72,0,13.75c4.38,5.01,2.7,10.02,0,13.75"/>
        <path class="cls-4" d="M338.15,206.9s-4.38,8.72,0,13.75c4.38,5.01,2.7,10.02,0,13.75"/>
      </g>
    </g>
  </g>
  <g>
    <path class="cls-6" d="M74.35,133.23l-35.53-13.54,2.32-3.16,30.85,12.3-20.35-26.59,2.43-3.28,31.32,11.74-20.94-25.86,2.32-3.16,23.4,30.01-2.44,3.33-30.64-11.1,19.61,26.07-2.39,3.25.03-.02Z"/>
    <path class="cls-6" d="M113.27,89.55c-1.81,1.59-3.82,2.6-6.02,3.02-2.2.42-4.41.23-6.61-.59-2.22-.82-4.22-2.27-6.04-4.34-1.88-2.15-3.09-4.38-3.59-6.67-.51-2.3-.4-4.52.31-6.65.72-2.15,1.99-4.01,3.8-5.6,1.88-1.66,3.93-2.69,6.12-3.11,2.2-.42,4.38-.21,6.58.59,2.2.82,4.24,2.29,6.12,4.45,1.81,2.08,2.98,4.26,3.51,6.58.52,2.3.42,4.54-.28,6.67-.72,2.13-2.01,4.03-3.89,5.69l-.02-.03ZM111.24,87.16c1.24-1.08,2.11-2.37,2.62-3.89s.56-3.14.16-4.9c-.4-1.76-1.38-3.51-2.91-5.27-1.57-1.78-3.18-2.98-4.85-3.61s-3.28-.79-4.83-.47-2.95,1.01-4.19,2.09c-1.19,1.03-2.02,2.32-2.55,3.84s-.59,3.16-.21,4.89c.38,1.73,1.36,3.49,2.91,5.27,1.54,1.76,3.16,2.95,4.83,3.59s3.3.8,4.87.51,2.95-.99,4.15-2.04Z"/>
    <path class="cls-6" d="M134.48,72.36l-14.08-22.32,2.83-1.78,2.93,4.15c-.17-1.33-.09-2.6.26-3.82.35-1.2.96-2.36,1.85-3.46.87-1.08,2.02-2.08,3.44-2.98l2.04,3.23-1.19.75c-.94.59-1.78,1.29-2.51,2.11-.73.8-1.24,1.73-1.55,2.74s-.35,2.16-.12,3.42c.23,1.27.8,2.65,1.76,4.15l7.45,11.81-3.11,1.95v.03Z"/>
    <path class="cls-6" d="M158.15,58.74l-16.42-33.92,3.3-1.59,16.42,33.92s-3.3,1.59-3.3,1.59Z"/>
    <path class="cls-6" d="M186.88,47.76c-2.46.79-4.78.87-6.96.31-2.18-.58-4.08-1.71-5.71-3.39-1.62-1.68-2.84-3.79-3.65-6.32-.8-2.53-1.01-4.94-.65-7.24s1.29-4.29,2.77-6c1.47-1.71,3.44-2.95,5.9-3.73,2.09-.66,4.1-.79,6-.38,1.9.4,3.54,1.31,4.94,2.69l-4.87-15.43,3.49-1.1,11.36,35.95-3.19,1.01-1.73-4.45c-.23,1.03-.65,2.08-1.26,3.14-.61,1.06-1.45,2.04-2.51,2.91s-2.37,1.55-3.94,2.04v-.02ZM186.17,44.64c1.76-.56,3.18-1.47,4.22-2.74,1.05-1.26,1.71-2.77,2.01-4.54.28-1.76.1-3.65-.54-5.67-.65-2.02-1.59-3.68-2.84-4.97-1.26-1.29-2.67-2.15-4.24-2.57-1.57-.42-3.25-.35-5.01.21-1.69.54-3.09,1.43-4.17,2.69s-1.76,2.76-2.02,4.52-.09,3.66.58,5.72c.65,2.06,1.61,3.73,2.84,5.01s2.67,2.11,4.26,2.53c1.59.42,3.25.35,4.94-.19h-.02Z"/>
    <path class="cls-6" d="M237.92,37.59l-1.87-36.59,3.66-.19,1.87,36.59-3.66.19Z"/>
    <path class="cls-6" d="M257.66,37.05l2.25-26.28,3.33.28-.19,4.71c.98-1.61,2.3-2.79,3.96-3.59s3.47-1.12,5.41-.96c2.02.17,3.73.72,5.17,1.66s2.5,2.23,3.19,3.93c.7,1.69.94,3.79.72,6.28l-1.36,15.91-3.65-.31,1.33-15.5c.24-2.77-.19-4.9-1.29-6.37s-2.76-2.29-4.99-2.48c-1.57-.14-3,.12-4.29.77s-2.37,1.64-3.19,3c-.84,1.36-1.34,3.09-1.52,5.18l-1.2,14.08-3.65-.31h-.02Z"/>
    <path class="cls-6" d="M303.97,44.74c-2.02-.52-3.72-1.34-5.08-2.41-1.36-1.08-2.34-2.37-2.93-3.87-.59-1.5-.77-3.18-.51-4.97l3.7.98c-.09,1.03.05,2.02.44,2.98s1.01,1.81,1.9,2.55c.89.73,2.02,1.29,3.4,1.66,1.29.33,2.39.44,3.32.28s1.68-.51,2.29-1.05c.59-.54.99-1.22,1.2-2.04.3-1.12.26-2.06-.1-2.81-.37-.77-.99-1.43-1.88-1.99s-2.01-1.15-3.32-1.8c-1.1-.51-2.11-1.06-3.05-1.68-.94-.61-1.76-1.29-2.44-2.04s-1.17-1.61-1.43-2.57c-.28-.96-.26-1.99.03-3.11.38-1.45,1.08-2.63,2.09-3.54s2.27-1.5,3.79-1.76c1.52-.26,3.18-.17,5.01.31,2.6.68,4.55,1.88,5.86,3.63,1.31,1.73,1.78,3.89,1.4,6.46l-3.54-.92c.23-1.41-.05-2.67-.86-3.75-.8-1.08-2.06-1.83-3.79-2.29-1.69-.44-3.07-.44-4.15.02s-1.76,1.27-2.08,2.46c-.19.75-.12,1.45.21,2.11s.91,1.31,1.74,1.94c.84.63,1.88,1.26,3.16,1.88,1.54.73,2.93,1.52,4.17,2.37s2.16,1.88,2.76,3.11.66,2.74.17,4.57c-.37,1.54-1.08,2.77-2.18,3.75-1.08.98-2.41,1.61-4,1.9-1.57.3-3.33.17-5.3-.33v-.03Z"/>
    <path class="cls-6" d="M322.28,61.74l15.98-34.38,3.04,1.41-1.73,4.45c.91-.61,1.94-1.12,3.11-1.47,1.17-.37,2.44-.51,3.8-.42s2.79.47,4.29,1.15c2.3,1.08,4.07,2.57,5.29,4.47s1.85,4.03,1.92,6.35c.07,2.32-.45,4.69-1.57,7.1s-2.6,4.33-4.43,5.76c-1.85,1.43-3.87,2.29-6.07,2.58s-4.48-.12-6.82-1.2c-2.02-.94-3.61-2.2-4.73-3.79-1.13-1.59-1.74-3.35-1.83-5.32l-6.91,14.87-3.32-1.55-.02-.02ZM340.18,54.53c1.64.77,3.28,1.03,4.94.82,1.64-.23,3.14-.87,4.52-1.97s2.51-2.62,3.42-4.59c.89-1.94,1.33-3.79,1.29-5.58-.03-1.78-.51-3.37-1.4-4.75s-2.16-2.46-3.82-3.21c-1.64-.77-3.28-1.05-4.92-.84s-3.14.86-4.55,1.95c-1.4,1.1-2.55,2.63-3.47,4.59-.89,1.94-1.31,3.79-1.26,5.57s.54,3.37,1.43,4.76c.89,1.4,2.16,2.48,3.8,3.25h.02Z"/>
    <path class="cls-6" d="M363.51,70.36l14.48-22.06,3.07,2.01-14.48,22.06-3.07-2.01ZM382.95,44.1c-.61-.4-.99-.96-1.15-1.68s-.03-1.38.4-2.02c.44-.66.99-1.06,1.68-1.19s1.34.03,1.99.45c.58.38.96.91,1.15,1.61s.05,1.36-.38,2.02c-.42.65-.98,1.03-1.68,1.19-.7.14-1.36,0-1.97-.38h-.03Z"/>
    <path class="cls-6" d="M379.82,81.91l16.89-20.26,2.57,2.15-3.05,4.07c1.2-.58,2.44-.89,3.7-.92s2.55.19,3.86.7,2.6,1.29,3.89,2.36l-2.44,2.93-1.08-.91c-.86-.72-1.78-1.29-2.77-1.74-.99-.44-2.02-.65-3.09-.63s-2.16.33-3.3.92-2.27,1.59-3.42,2.95l-8.95,10.73-2.81-2.36.02.02Z"/>
    <path class="cls-6" d="M406.33,107.89c-1.62-1.83-2.63-3.82-3-5.99-.38-2.16-.16-4.33.7-6.51.84-2.18,2.3-4.19,4.4-6.05,2.08-1.85,4.24-3.07,6.47-3.66s4.41-.54,6.53.12,4,1.92,5.64,3.77c1.69,1.9,2.7,3.91,3.02,6,.31,2.09.1,4.1-.66,6.02-.77,1.92-1.97,3.61-3.61,5.08-.26.23-.52.47-.8.72s-.61.51-.99.82l-14.41-16.19,2.3-2.06,12.08,13.56c1.94-1.87,2.93-3.87,2.97-6.04.03-2.16-.75-4.14-2.34-5.93-1.03-1.15-2.25-1.99-3.7-2.53s-2.95-.66-4.52-.35c-1.57.3-3.14,1.15-4.71,2.55l-1.01.91c-1.78,1.57-2.97,3.21-3.56,4.89-.61,1.68-.73,3.28-.4,4.82.33,1.54.99,2.84,1.99,3.98,1.33,1.48,2.74,2.41,4.28,2.79s3.05.24,4.61-.38l2.41,2.7c-1.43.72-2.93,1.1-4.54,1.17-1.61.07-3.18-.23-4.73-.91-1.55-.68-3-1.76-4.34-3.28h-.03Z"/>
    <path class="cls-6" d="M428.46,137.85c-1.33-2.22-1.97-4.45-1.92-6.7.05-2.25.7-4.36,1.95-6.33s3.02-3.65,5.29-5.03,4.57-2.15,6.89-2.32,4.48.24,6.49,1.29c2.01,1.03,3.68,2.65,5.01,4.87,1.13,1.88,1.73,3.8,1.78,5.74s-.44,3.75-1.47,5.43l13.85-8.36,1.88,3.14-32.28,19.46-1.73-2.86,3.91-2.72c-1.05.02-2.16-.14-3.35-.49s-2.32-.92-3.42-1.76c-1.08-.84-2.06-1.95-2.91-3.35h.02ZM431.34,136.42c.96,1.59,2.16,2.74,3.65,3.46,1.47.72,3.09,1.01,4.87.89,1.78-.14,3.58-.75,5.39-1.85s3.21-2.41,4.17-3.93,1.47-3.09,1.5-4.73c.03-1.62-.42-3.25-1.38-4.82-.92-1.52-2.11-2.67-3.59-3.42-1.48-.77-3.11-1.06-4.87-.92s-3.58.79-5.43,1.9-3.25,2.43-4.21,3.94c-.94,1.5-1.43,3.09-1.45,4.73-.03,1.64.42,3.23,1.34,4.76v-.02Z"/>
  </g>
  <g>
    <path class="cls-6" d="M61.77,336.99l31.79-18.2,1.81,3.18-31.79,18.2-1.81-3.18ZM73.45,357.38l31.79-18.2,1.81,3.18-31.79,18.2s-1.81-3.18-1.81-3.18ZM78.02,330.93l2.63-1.5,10.8,18.85-2.63,1.5-10.8-18.85Z"/>
    <path class="cls-6" d="M96.08,387.36c-1.64-1.76-2.69-3.75-3.18-5.93-.49-2.2-.35-4.4.42-6.63.77-2.23,2.16-4.28,4.19-6.16,2.09-1.94,4.29-3.19,6.58-3.77s4.5-.52,6.67.14,4.07,1.88,5.69,3.65c1.71,1.85,2.79,3.86,3.26,6.04.47,2.18.33,4.38-.42,6.6s-2.18,4.29-4.28,6.25c-2.02,1.87-4.19,3.11-6.47,3.68-2.29.58-4.52.54-6.67-.1s-4.08-1.9-5.78-3.73l-.02-.02ZM98.42,385.27c1.12,1.2,2.43,2.04,3.96,2.5,1.52.47,3.16.47,4.9.02,1.74-.45,3.47-1.47,5.2-3.05,1.74-1.61,2.9-3.26,3.49-4.94.58-1.68.7-3.3.33-4.83s-1.1-2.91-2.22-4.12c-1.06-1.15-2.37-1.97-3.91-2.44-1.54-.47-3.16-.51-4.89-.07-1.73.44-3.46,1.45-5.2,3.05-1.71,1.59-2.88,3.23-3.47,4.92s-.72,3.32-.37,4.87,1.06,2.91,2.16,4.1h0Z"/>
    <path class="cls-6" d="M121.33,410.88l14.2-22.23,2.83,1.8-1.92,3.49c1.47-.8,3.02-1.15,4.66-1.06,1.64.09,3.19.61,4.66,1.55,1.12.72,2.04,1.54,2.77,2.46s1.26,1.94,1.54,3.04c.3,1.1.33,2.3.12,3.61,1.59-.92,3.3-1.36,5.15-1.31,1.85.07,3.52.58,5.06,1.55,1.71,1.08,2.97,2.37,3.8,3.86s1.15,3.14.96,4.96c-.19,1.83-.96,3.79-2.32,5.92l-8.57,13.42-3.09-1.97,8.34-13.05c1.5-2.36,2.15-4.41,1.94-6.19s-1.2-3.23-2.97-4.34c-1.17-.75-2.44-1.12-3.82-1.12s-2.72.44-4.01,1.29-2.51,2.15-3.65,3.91l-7.64,11.95-3.09-1.97,8.34-13.05c1.5-2.36,2.15-4.41,1.92-6.19-.23-1.78-1.2-3.21-2.9-4.31-1.24-.79-2.53-1.17-3.89-1.15-1.36.02-2.7.47-4.05,1.33-1.34.87-2.58,2.2-3.73,3.98l-7.56,11.83s-3.09-1.97-3.09-1.97Z"/>
    <path class="cls-6" d="M185.28,444.47c-2.32-.75-4.19-1.97-5.62-3.65s-2.32-3.66-2.69-5.97c-.37-2.3-.12-4.78.75-7.43.87-2.65,2.11-4.8,3.75-6.44s3.52-2.69,5.69-3.19c2.16-.49,4.41-.35,6.77.42,2.43.79,4.31,2.01,5.64,3.65s2.16,3.49,2.46,5.53c.31,2.04.12,4.12-.56,6.21-.1.33-.21.66-.33,1.01s-.26.75-.45,1.2l-20.61-6.7.96-2.93,17.28,5.62c.73-2.58.58-4.82-.49-6.7s-2.72-3.19-5.03-3.94c-1.47-.47-2.95-.58-4.47-.33s-2.88.92-4.08,1.97c-1.2,1.06-2.13,2.58-2.77,4.57l-.42,1.29c-.73,2.25-.94,4.26-.61,6.02s1.01,3.21,2.08,4.36,2.3,1.95,3.72,2.43c1.88.61,3.59.7,5.1.26,1.5-.45,2.76-1.33,3.79-2.65l3.44,1.12c-.87,1.33-1.99,2.43-3.33,3.3-1.34.87-2.86,1.4-4.54,1.61s-3.49,0-5.41-.63h0Z"/>
    <path class="cls-6" d="M243.44,454.19l-.89-36.63,12.3-.3c2.58-.07,4.73.3,6.42,1.1,1.69.8,2.97,1.88,3.82,3.26s1.31,2.91,1.34,4.62c.05,1.88-.33,3.47-1.12,4.75s-1.83,2.27-3.12,2.95c-1.29.7-2.65,1.15-4.08,1.36l.66-.54c1.54,0,2.98.38,4.33,1.15,1.34.77,2.44,1.81,3.26,3.14s1.27,2.84,1.31,4.55c.03,1.81-.37,3.49-1.22,5.03-.86,1.54-2.15,2.77-3.86,3.73-1.73.94-3.89,1.45-6.51,1.52l-12.67.3h.02ZM246.6,433.69l8.53-.21c2.48-.05,4.36-.7,5.65-1.92s1.92-2.84,1.87-4.87c-.05-1.95-.73-3.52-2.06-4.69s-3.3-1.73-5.95-1.66l-8.38.21.31,13.14h.02ZM247.02,451.02l8.74-.21c2.65-.07,4.69-.73,6.11-2.02s2.09-3.04,2.04-5.23-.86-3.93-2.41-5.2-3.63-1.88-6.25-1.81l-8.59.21.35,14.29v-.02Z"/>
    <path class="cls-6" d="M287.59,450.63l-5.46-25.81,3.28-.7,1.31,4.92c.3-1.31.82-2.48,1.57-3.49s1.73-1.88,2.93-2.6c1.2-.72,2.62-1.26,4.26-1.61l.79,3.73-1.38.3c-1.1.23-2.11.59-3.09,1.1-.96.51-1.76,1.19-2.41,2.04-.65.86-1.08,1.9-1.31,3.16s-.16,2.76.21,4.5l2.9,13.68-3.58.75-.02.02Z"/>
    <path class="cls-6" d="M328.42,439.34c-2.27.91-4.48,1.19-6.65.82-2.16-.37-4.12-1.31-5.9-2.84-1.76-1.54-3.18-3.58-4.21-6.18-1.05-2.58-1.47-5.03-1.27-7.33.21-2.3.98-4.33,2.32-6.09,1.34-1.76,3.16-3.11,5.46-4.03,2.36-.96,4.59-1.22,6.67-.82s3.89,1.29,5.44,2.65c1.55,1.38,2.74,3.07,3.56,5.11.12.33.26.66.4.99s.28.75.44,1.2l-20.1,8.1-1.15-2.86,16.86-6.79c-1.1-2.46-2.67-4.07-4.68-4.83-2.02-.77-4.15-.7-6.39.21-1.43.58-2.63,1.45-3.63,2.62s-1.62,2.55-1.87,4.14.02,3.35.8,5.29l.51,1.26c.89,2.2,2.02,3.87,3.4,5.01s2.84,1.81,4.4,2.01c1.55.21,3.02.02,4.41-.54,1.85-.75,3.19-1.76,4.07-3.07s1.26-2.79,1.19-4.47l3.35-1.34c.19,1.59.03,3.14-.44,4.66s-1.29,2.91-2.44,4.15-2.67,2.23-4.55,2.98h0Z"/>
    <path class="cls-6" d="M361.14,422.14l-21.5-17.14,3.04-2.13,18.11,14.85-.59.42-7.4-22.37,3.42-2.41,18.53,14.55-.59.42-7.83-22.07,3.04-2.13,8.83,26.03-3.04,2.13-19.35-15.25.59-.42,7.78,23.38-3.04,2.13h0Z"/>
    <path class="cls-6" d="M405.95,384.73c-1.64,1.81-3.51,3.04-5.6,3.66-2.11.63-4.29.63-6.54.03s-4.43-1.83-6.51-3.68-3.52-3.87-4.36-6.04c-.84-2.15-1.03-4.31-.61-6.49s1.47-4.19,3.12-6.02c1.69-1.9,3.58-3.12,5.62-3.68s4.07-.56,6.05,0,3.8,1.55,5.44,3.02c.26.23.52.47.8.72s.58.54.92.89l-14.47,16.12-2.3-2.06,12.13-13.52c-2.08-1.71-4.19-2.48-6.33-2.27-2.15.21-4.03,1.2-5.64,2.98-1.03,1.15-1.73,2.46-2.11,3.94-.38,1.48-.33,3,.16,4.54.47,1.54,1.5,3,3.05,4.4l1.01.91c1.76,1.59,3.52,2.58,5.25,3s3.35.37,4.83-.14c1.48-.51,2.72-1.31,3.72-2.43,1.33-1.48,2.09-3,2.29-4.55s-.1-3.07-.89-4.54l2.41-2.69c.87,1.34,1.41,2.79,1.66,4.38.24,1.59.12,3.18-.37,4.8s-1.41,3.19-2.77,4.69l.03.02Z"/>
    <path class="cls-6" d="M431.6,349.18c-1.27,2.25-2.9,3.91-4.89,4.96-1.99,1.06-4.15,1.54-6.49,1.41s-4.66-.84-6.96-2.15-4.1-2.93-5.39-4.87c-1.29-1.94-1.97-4.03-2.06-6.28-.09-2.25.51-4.5,1.78-6.75,1.08-1.92,2.46-3.37,4.14-4.36,1.68-.99,3.49-1.47,5.44-1.4l-14.06-7.97,1.81-3.19,32.79,18.6-1.66,2.91-4.29-2.08c.52.91.94,1.95,1.22,3.16s.33,2.48.14,3.84-.68,2.76-1.5,4.17h-.02ZM428.94,347.39c.91-1.61,1.33-3.23,1.22-4.87-.09-1.64-.63-3.19-1.62-4.68-.98-1.48-2.41-2.74-4.26-3.8-1.85-1.05-3.68-1.62-5.46-1.71s-3.4.24-4.85,1.01-2.62,1.95-3.52,3.56c-.87,1.55-1.29,3.16-1.22,4.82s.59,3.23,1.59,4.69,2.43,2.74,4.31,3.8c1.88,1.06,3.72,1.64,5.5,1.73s3.39-.26,4.83-1.05,2.62-1.95,3.49-3.49v-.02Z"/>
  </g>
  <g>
    <path class="cls-6" d="M0,245.97v-24.43h16.37v4.22H5.23v5.76h10.09v4.05H5.23v6.18h11.13v4.22H0Z"/>
    <path class="cls-6" d="M35.39,246.39c-1.74,0-3.32-.3-4.73-.89s-2.51-1.47-3.33-2.63c-.82-1.17-1.26-2.6-1.33-4.29h5.58c.02.68.19,1.27.52,1.78s.77.91,1.33,1.2,1.2.44,1.95.44c.63,0,1.19-.1,1.66-.3s.86-.49,1.13-.87.42-.87.42-1.45-.16-1.12-.49-1.55-.77-.8-1.33-1.12-1.2-.61-1.94-.87-1.52-.52-2.36-.79c-1.94-.63-3.42-1.48-4.45-2.55s-1.55-2.5-1.55-4.29c0-1.48.37-2.76,1.1-3.82s1.74-1.87,3.02-2.43,2.74-.84,4.36-.84,3.14.28,4.41.86,2.29,1.4,3.04,2.48,1.15,2.37,1.2,3.86h-5.62c-.02-.51-.17-.98-.44-1.4s-.63-.75-1.08-1.01c-.45-.26-.98-.38-1.59-.38-.54-.02-1.03.05-1.47.23s-.79.44-1.05.8-.38.8-.38,1.34.14.96.4,1.34.65.72,1.12.98c.47.26,1.03.52,1.68.75.65.23,1.34.47,2.11.7,1.24.42,2.37.91,3.4,1.48s1.87,1.31,2.51,2.23.96,2.13.96,3.65c0,1.33-.35,2.55-1.03,3.66s-1.68,2.01-2.97,2.69c-1.29.68-2.9,1.01-4.8,1.01Z"/>
    <path class="cls-6" d="M59.92,245.97v-20.21h-7.08v-4.22h19.4v4.22h-7.08v20.21h-5.23Z"/>
    <path class="cls-6" d="M81.35,246.14c-.96,0-1.73-.28-2.32-.86s-.89-1.26-.89-2.08.3-1.54.89-2.11,1.36-.86,2.32-.86,1.69.28,2.27.86c.58.58.87,1.27.87,2.11s-.3,1.5-.87,2.08-1.34.86-2.27.86Z"/>
  </g>
  <g>
    <path class="cls-6" d="M407.39,245.22v-3.87c1.41-1.17,2.83-2.32,4.21-3.46,1.38-1.13,2.63-2.27,3.73-3.4s1.99-2.23,2.63-3.32.98-2.13.98-3.12c0-.58-.1-1.12-.33-1.62s-.56-.89-1.01-1.19-1.05-.44-1.8-.44-1.34.16-1.85.49-.89.77-1.15,1.34c-.26.58-.38,1.22-.38,1.97h-5.06c.07-1.87.49-3.4,1.26-4.64.77-1.24,1.8-2.15,3.09-2.72,1.29-.58,2.72-.87,4.28-.87,1.81,0,3.33.33,4.54.99s2.13,1.55,2.74,2.65c.61,1.1.92,2.34.92,3.68,0,1.06-.19,2.09-.56,3.09s-.89,1.94-1.54,2.86c-.65.92-1.4,1.8-2.22,2.65s-1.69,1.66-2.6,2.44-1.8,1.52-2.69,2.22h10.09v4.26h-17.28Z"/>
    <path class="cls-6" d="M444.53,245.64c-2.25,0-4.19-.54-5.79-1.61s-2.84-2.55-3.72-4.45-1.31-4.08-1.31-6.58.44-4.68,1.31-6.58c.87-1.9,2.11-3.39,3.72-4.45s3.54-1.61,5.79-1.61,4.19.54,5.79,1.61,2.84,2.55,3.72,4.45,1.31,4.08,1.31,6.58-.44,4.68-1.31,6.58-2.11,3.39-3.72,4.45-3.54,1.61-5.79,1.61ZM444.53,240.93c1.1,0,2.06-.33,2.88-.98s1.47-1.57,1.92-2.74c.45-1.17.68-2.58.68-4.21s-.23-3.04-.68-4.21-1.1-2.08-1.92-2.72-1.78-.96-2.88-.96-2.06.31-2.88.96c-.82.65-1.47,1.55-1.92,2.72-.45,1.17-.68,2.58-.68,4.21s.23,3.04.68,4.21,1.1,2.09,1.92,2.74c.82.65,1.78.98,2.88.98Z"/>
    <path class="cls-6" d="M464.77,245.22v-3.87c1.41-1.17,2.83-2.32,4.21-3.46s2.63-2.27,3.73-3.4,1.99-2.23,2.63-3.32.98-2.13.98-3.12c0-.58-.1-1.12-.33-1.62s-.56-.89-1.01-1.19c-.45-.3-1.05-.44-1.8-.44s-1.34.16-1.85.49-.89.77-1.15,1.34-.38,1.22-.38,1.97h-5.06c.07-1.87.49-3.4,1.26-4.64.77-1.24,1.8-2.15,3.09-2.72,1.29-.58,2.72-.87,4.28-.87,1.81,0,3.33.33,4.54.99s2.13,1.55,2.74,2.65c.61,1.1.92,2.34.92,3.68,0,1.06-.19,2.09-.56,3.09-.37.99-.89,1.94-1.54,2.86s-1.4,1.8-2.22,2.65-1.69,1.66-2.6,2.44-1.8,1.52-2.69,2.22h10.09v4.26h-17.28Z"/>
    <path class="cls-6" d="M500.82,245.64c-1.83,0-3.4-.31-4.71-.96-1.31-.65-2.32-1.52-3.04-2.62s-1.13-2.36-1.22-3.75h5.1c.14.79.56,1.47,1.27,2.04s1.57.86,2.6.86c.75,0,1.4-.19,1.97-.58.58-.38,1.01-.91,1.33-1.57.31-.66.47-1.4.47-2.22s-.16-1.61-.49-2.22-.77-1.08-1.33-1.4c-.56-.31-1.2-.47-1.92-.47-.86,0-1.62.21-2.27.65s-1.12.94-1.4,1.55h-5.06l2.02-14.17h13.96v4.57h-10.09l-.91,4.82c.49-.49,1.15-.89,1.97-1.2.82-.31,1.74-.47,2.74-.47,1.34,0,2.51.23,3.49.7.98.47,1.8,1.1,2.44,1.88s1.13,1.68,1.43,2.65.45,1.99.45,3.04c0,1.33-.23,2.53-.66,3.61-.44,1.08-1.06,2.01-1.85,2.79-.79.79-1.73,1.38-2.81,1.81s-2.25.65-3.51.65h0Z"/>
  </g>
</svg>